<svg width="390" height="845" viewBox="0 0 390 845" fill="none" xmlns="http://www.w3.org/2000/svg">
<line x1="21.5" y1="0.779896" x2="24.6106" y2="844.779" stroke="#B1C7DC" stroke-opacity="0.5"/>
<line x1="64.5" y1="0.779896" x2="67.6106" y2="844.779" stroke="#B1C7DC" stroke-opacity="0.5"/>
<line x1="107.5" y1="0.779896" x2="110.611" y2="844.779" stroke="#B1C7DC" stroke-opacity="0.5"/>
<line x1="150.5" y1="0.779896" x2="153.611" y2="844.779" stroke="#B1C7DC" stroke-opacity="0.5"/>
<line x1="193.5" y1="0.779896" x2="196.611" y2="844.779" stroke="#B1C7DC" stroke-opacity="0.5"/>
<line x1="236.5" y1="0.779896" x2="239.611" y2="844.779" stroke="#B1C7DC" stroke-opacity="0.5"/>
<line x1="279.5" y1="0.779896" x2="282.611" y2="844.779" stroke="#B1C7DC" stroke-opacity="0.5"/>
<line x1="322.5" y1="0.779896" x2="325.611" y2="844.779" stroke="#B1C7DC" stroke-opacity="0.5"/>
<line x1="365.5" y1="0.779896" x2="368.611" y2="844.779" stroke="#B1C7DC" stroke-opacity="0.5"/>
<line y1="42.2817" x2="390" y2="42.2817" stroke="#B1C7DC" stroke-opacity="0.5"/>
<line y1="202.282" x2="390" y2="202.282" stroke="#B1C7DC" stroke-opacity="0.5"/>
<line y1="362.282" x2="390" y2="362.282" stroke="#B1C7DC" stroke-opacity="0.5"/>
<line y1="522.282" x2="390" y2="522.282" stroke="#B1C7DC" stroke-opacity="0.5"/>
<line y1="682.282" x2="390" y2="682.282" stroke="#B1C7DC" stroke-opacity="0.5"/>
<line y1="82.2817" x2="390" y2="82.2817" stroke="#B1C7DC" stroke-opacity="0.5"/>
<line y1="242.282" x2="390" y2="242.282" stroke="#B1C7DC" stroke-opacity="0.5"/>
<line y1="402.282" x2="390" y2="402.282" stroke="#B1C7DC" stroke-opacity="0.5"/>
<line y1="562.282" x2="390" y2="562.282" stroke="#B1C7DC" stroke-opacity="0.5"/>
<line y1="722.282" x2="390" y2="722.282" stroke="#B1C7DC" stroke-opacity="0.5"/>
<line y1="122.282" x2="390" y2="122.282" stroke="#B1C7DC" stroke-opacity="0.5"/>
<line y1="282.282" x2="390" y2="282.282" stroke="#B1C7DC" stroke-opacity="0.5"/>
<line y1="442.282" x2="390" y2="442.282" stroke="#B1C7DC" stroke-opacity="0.5"/>
<line y1="602.282" x2="390" y2="602.282" stroke="#B1C7DC" stroke-opacity="0.5"/>
<line y1="762.282" x2="390" y2="762.282" stroke="#B1C7DC" stroke-opacity="0.5"/>
<line y1="162.282" x2="390" y2="162.282" stroke="#B1C7DC" stroke-opacity="0.5"/>
<line y1="322.282" x2="390" y2="322.282" stroke="#B1C7DC" stroke-opacity="0.5"/>
<line y1="482.282" x2="390" y2="482.282" stroke="#B1C7DC" stroke-opacity="0.5"/>
<line y1="642.282" x2="390" y2="642.282" stroke="#B1C7DC" stroke-opacity="0.5"/>
<line y1="802.282" x2="390" y2="802.282" stroke="#B1C7DC" stroke-opacity="0.5"/>
</svg>
