<svg width="323" height="88" viewBox="0 0 323 88" fill="none" xmlns="http://www.w3.org/2000/svg">
<path d="M79.6935 41.7419C79.6935 39.4645 81.703 37.7898 85.1192 37.7898C89.2053 37.7898 91.7507 39.5314 92.4206 43.8855H100.995C99.9229 34.9765 93.6933 31.0914 85.4542 31.0914C76.0763 31.0914 71.5213 36.4501 71.5213 42.2778C71.5213 56.8135 93.6933 49.9141 93.6933 57.9523C93.6933 60.5647 91.4828 62.3733 87.2627 62.3733C82.7748 62.3733 79.6935 60.1628 79.0906 56.2777H70.5165C71.7892 64.9187 78.1528 69.0048 86.9948 69.0048C95.9708 69.0048 102.334 64.3158 102.334 57.4164C102.334 43.0147 79.6935 49.9811 79.6935 41.7419ZM106.302 56.8135C106.302 64.8517 109.785 69.0048 117.086 69.0048C119.431 69.0048 121.373 68.6029 122.311 68.134V61.8374H120.703C115.947 61.8374 114.876 59.8279 114.876 56.0767V38.7276H122.445V32.0961H114.876V23.857H106.302V32.0961H101.68V38.7276H106.302V56.8135ZM124.455 68H133.029V48.9093C133.029 42.9477 135.909 39.0626 142.407 39.0626C143.948 39.0626 145.22 39.1965 146.359 39.5314V32.0961C145.689 31.4933 144.35 31.0914 142.876 31.0914C138.991 31.0914 135.374 33.0339 133.029 37.3209V32.0961H124.455V68ZM170.174 52.9284C170.174 57.7513 167.294 61.9044 162.672 61.9044C158.452 61.9044 156.442 59.225 156.442 54.3351V32.0961H147.868V56.0767C147.868 64.7177 152.624 69.0048 159.725 69.0048C164.146 69.0048 167.83 67.1292 170.174 63.1771V68H178.748V32.0961H170.174V52.9284ZM214.726 44.8232C213.52 35.6463 207.09 31.0914 198.918 31.0914C188.602 31.0914 181.97 37.9238 181.97 50.1151C181.97 61.7704 188.401 69.0048 198.985 69.0048C207.09 69.0048 213.386 64.7847 214.994 55.8088H206.353C205.482 59.8948 202.87 61.9044 199.185 61.9044C193.76 61.9044 190.812 57.6843 190.812 50.1151C190.812 42.4118 193.626 38.1918 198.918 38.1918C202.535 38.1918 205.348 40.1343 206.152 44.8232H214.726ZM219.056 56.8135C219.056 64.8517 222.539 69.0048 229.84 69.0048C232.185 69.0048 234.127 68.6029 235.065 68.134V61.8374H233.458C228.702 61.8374 227.63 59.8279 227.63 56.0767V38.7276H235.199V32.0961H227.63V23.857H219.056V32.0961H214.434V38.7276H219.056V56.8135ZM237.209 28.077H245.783V19.7709H237.209V28.077ZM237.209 68H245.783V32.0961H237.209V68ZM266.155 69.0048C276.537 69.0048 283.303 62.1723 283.303 50.1151C283.303 38.3257 276.738 31.0914 266.155 31.0914C255.705 31.0914 248.94 37.9238 248.94 50.1151C248.94 61.8374 255.504 69.0048 266.155 69.0048ZM266.155 61.9044C260.729 61.9044 257.782 57.6843 257.782 50.1151C257.782 42.4118 260.662 38.1918 266.155 38.1918C271.513 38.1918 274.461 42.4788 274.461 50.1151C274.461 57.7513 271.58 61.9044 266.155 61.9044ZM286.522 68H295.096V47.1677C295.096 42.3448 298.043 38.1918 302.799 38.1918C307.153 38.1918 309.23 40.9381 309.23 45.828V68H317.804V44.0864C317.804 35.3784 312.914 31.0914 305.746 31.0914C301.191 31.0914 297.44 33.0339 295.096 36.919V32.0961H286.522V68Z" fill="white"/>
<g clip-path="url(#clip0_7_140)">
<path d="M13.7897 16.3981L6.1972 34.3216L53.5803 34.3216L58.9192 16.3981L13.7897 16.3981Z" fill="white"/>
<path d="M5.81598 35.7994L11.7268 61.1114L59.4434 61.1114L53.4372 35.7994L5.81598 35.7994Z" fill="white"/>
<path d="M59.7769 62.5894L12.1079 62.5894L5.81578 81.9908L53.294 81.9908L59.7769 62.5894Z" fill="url(#paint0_linear_7_140)"/>
</g>
<defs>
<linearGradient id="paint0_linear_7_140" x1="36.896" y1="62.6111" x2="32.7965" y2="92.0532" gradientUnits="userSpaceOnUse">
<stop stop-color="white"/>
<stop offset="1" stop-color="white" stop-opacity="0"/>
</linearGradient>
<clipPath id="clip0_7_140">
<rect width="65.5926" height="65.5926" fill="white" transform="translate(65.5925 16.3981) rotate(90)"/>
</clipPath>
</defs>
</svg>
