<svg width="432" height="119" viewBox="0 0 432 119" fill="none" xmlns="http://www.w3.org/2000/svg">
<path d="M106.918 56.7718C106.918 53.7163 109.614 51.4696 114.197 51.4696C119.679 51.4696 123.094 53.8062 123.993 59.6476H135.496C134.058 47.6952 125.7 42.4828 114.647 42.4828C102.065 42.4828 95.9542 49.6722 95.9542 57.4907C95.9542 76.9921 125.7 67.7357 125.7 78.5198C125.7 82.0247 122.735 84.4511 117.073 84.4511C111.052 84.4511 106.918 81.4855 106.109 76.2731H94.6062C96.3137 87.8661 104.851 93.348 116.714 93.348C128.756 93.348 137.293 87.0573 137.293 77.8009C137.293 58.4793 106.918 67.8255 106.918 56.7718ZM142.616 76.9921C142.616 87.7762 147.289 93.348 157.085 93.348C160.23 93.348 162.836 92.8088 164.094 92.1797V83.7322H161.938C155.557 83.7322 154.119 81.0361 154.119 76.0035V52.7278H164.274V43.8308H154.119V32.7771H142.616V43.8308H136.415V52.7278H142.616V76.9921ZM166.971 92H178.474V66.3877C178.474 58.3894 182.338 53.1771 191.055 53.1771C193.122 53.1771 194.83 53.3568 196.358 53.8062V43.8308C195.459 43.022 193.662 42.4828 191.685 42.4828C186.472 42.4828 181.619 45.089 178.474 50.8405V43.8308H166.971V92ZM228.308 71.7797C228.308 78.2502 224.444 83.822 218.243 83.822C212.582 83.822 209.886 80.2273 209.886 73.667V43.8308H198.382V76.0035C198.382 87.5965 204.763 93.348 214.289 93.348C220.22 93.348 225.163 90.8317 228.308 85.5295V92H239.812V43.8308H228.308V71.7797ZM288.08 60.9057C286.462 48.5938 277.835 42.4828 266.871 42.4828C253.031 42.4828 244.134 51.6493 244.134 68.0053C244.134 83.6423 252.762 93.348 266.961 93.348C277.835 93.348 286.282 87.6863 288.439 75.6441H276.846C275.678 81.126 272.173 83.822 267.23 83.822C259.951 83.822 255.997 78.1604 255.997 68.0053C255.997 57.6705 259.771 52.0088 266.871 52.0088C271.724 52.0088 275.498 54.615 276.577 60.9057H288.08ZM293.889 76.9921C293.889 87.7762 298.562 93.348 308.358 93.348C311.503 93.348 314.109 92.8088 315.367 92.1797V83.7322H313.21C306.83 83.7322 305.392 81.0361 305.392 76.0035V52.7278H315.547V43.8308H305.392V32.7771H293.889V43.8308H287.688V52.7278H293.889V76.9921ZM318.244 38.4388H329.747V27.2952H318.244V38.4388ZM318.244 92H329.747V43.8308H318.244V92ZM357.077 93.348C371.007 93.348 380.083 84.1815 380.083 68.0053C380.083 52.1885 371.276 42.4828 357.077 42.4828C343.058 42.4828 333.981 51.6493 333.981 68.0053C333.981 83.7322 342.788 93.348 357.077 93.348ZM357.077 83.822C349.798 83.822 345.844 78.1604 345.844 68.0053C345.844 57.6705 349.708 52.0088 357.077 52.0088C364.267 52.0088 368.221 57.7604 368.221 68.0053C368.221 78.2502 364.356 83.822 357.077 83.822ZM384.402 92H395.905V64.0511C395.905 57.5806 399.859 52.0088 406.24 52.0088C412.081 52.0088 414.867 55.6934 414.867 62.2537V92H426.37V59.9172C426.37 48.2344 419.81 42.4828 410.194 42.4828C404.083 42.4828 399.05 45.089 395.905 50.3013V43.8308H384.402V92Z" fill="#265896"/>
<g clip-path="url(#clip0_7_139)">
<path d="M18.5 22L8.31377 46.0465L71.8836 46.0465L79.0464 22L18.5 22Z" fill="#265896"/>
<path d="M7.80245 48.029L15.7325 81.988L79.7498 81.988L71.6918 48.029L7.80245 48.029Z" fill="#265896"/>
<path d="M80.1973 83.9708L16.2439 83.9708L7.80228 110L71.4998 110L80.1973 83.9708Z" fill="url(#paint0_linear_7_139)"/>
</g>
<defs>
<linearGradient id="paint0_linear_7_139" x1="49.5" y1="83.9999" x2="44" y2="123.5" gradientUnits="userSpaceOnUse">
<stop stop-color="#265896"/>
<stop offset="1" stop-color="#265896" stop-opacity="0"/>
</linearGradient>
<clipPath id="clip0_7_139">
<rect width="88" height="88" fill="white" transform="translate(88 22) rotate(90)"/>
</clipPath>
</defs>
</svg>
